<?xml version="1.0" standalone="no"?>
<!DOCTYPE svg PUBLIC "-//W3C//DTD SVG 20010904//EN"
 "http://www.w3.org/TR/2001/REC-SVG-20010904/DTD/svg10.dtd">
<svg version="1.0" xmlns="http://www.w3.org/2000/svg"
 width="1280.000000pt" height="1280.000000pt" viewBox="0 0 1280.000000 1280.000000"
 preserveAspectRatio="xMidYMid meet">
<metadata>
Created by potrace 1.16, written by Peter Selinger 2001-2019
</metadata>
<g transform="translate(0.000000,1280.000000) scale(0.100000,-0.100000)"
fill="#000000" stroke="none">
<path d="M4875 11499 c-618 -41 -1123 -216 -1495 -516 -104 -84 -300 -289
-391 -408 -257 -338 -451 -697 -849 -1575 -167 -369 -257 -551 -719 -1465
-328 -648 -479 -1054 -547 -1470 -22 -134 -25 -449 -6 -570 109 -671 576
-1341 1474 -2112 1002 -861 1827 -1314 2599 -1427 615 -91 1277 16 2164 349
817 307 1593 674 2370 1123 1235 712 1867 1234 2129 1758 90 182 125 325 126
519 0 246 -64 470 -224 780 -157 304 -321 541 -844 1213 -385 495 -428 553
-812 1107 -145 209 -311 445 -368 525 -524 724 -998 1158 -1657 1513 -855 461
-2016 719 -2950 656z"/>
</g>
</svg>
